<svg width="35" height="30" viewBox="0 0 35 30" fill="none" xmlns="http://www.w3.org/2000/svg"><path fill-rule="evenodd" clip-rule="evenodd" d="M19.9475 19.3793L20.7984 17.9066C21.1343 17.3275 21.2455 16.645 21.1107 15.9891C20.9759 15.3333 20.6046 14.75 20.0675 14.3502L17.6348 12.5502C17.5401 12.5017 17.4567 12.4338 17.3898 12.3511C17.3229 12.2684 17.274 12.1726 17.2462 12.0699C17.2185 11.9672 17.2125 11.8599 17.2287 11.7547C17.2449 11.6496 17.2829 11.5489 17.3402 11.4593C17.4491 11.2998 17.5934 11.1676 17.7618 11.073C17.9302 10.9784 18.1182 10.9239 18.3111 10.9139C18.4247 10.8949 18.5413 10.9109 18.6456 10.9598C18.7498 11.0087 18.8367 11.0881 18.8947 11.1875C18.9527 11.287 18.9791 11.4017 18.9703 11.5165C18.9616 11.6313 18.9181 11.7407 18.8457 11.8302C18.7808 11.9444 18.7478 12.074 18.7503 12.2053C18.7529 12.3367 18.7907 12.4649 18.8599 12.5765C18.9291 12.6882 19.0272 12.7791 19.1437 12.8397C19.2602 12.9004 19.3909 12.9285 19.522 12.9212H22.7075C22.9707 12.9205 23.229 12.8494 23.4554 12.7151C23.6818 12.5808 23.868 12.3882 23.9948 12.1575L24.5293 11.1975C24.7056 10.877 24.7953 10.5161 24.7896 10.1504C24.784 9.7847 24.6831 9.42676 24.4971 9.11186C24.311 8.79697 24.0461 8.53598 23.7285 8.35461C23.4108 8.17323 23.0514 8.07773 22.6857 8.07752H16.1402C15.4452 8.07692 14.7627 8.26285 14.164 8.61592C13.5653 8.96899 13.0724 9.47625 12.7366 10.0848L11.6457 11.9612C11.3869 12.4314 11.304 12.9784 11.412 13.5042C11.5199 14.0299 11.8116 14.5 12.2348 14.8302L14.9729 16.9139C15.1714 17.0418 15.3128 17.2414 15.3677 17.4711C15.4226 17.7008 15.3867 17.9428 15.2675 18.1466C15.18 18.2558 15.0656 18.3403 14.9355 18.392C14.8055 18.4436 14.6642 18.4606 14.5257 18.4412C13.9366 18.4412 13.6202 18.1684 13.8602 17.7321C13.9396 17.5931 13.9798 17.4352 13.9765 17.2752C13.9732 17.1152 13.9265 16.9591 13.8414 16.8235C13.7562 16.688 13.6359 16.5781 13.4932 16.5057C13.3505 16.4332 13.1908 16.4008 13.0311 16.4121H11.5475H10.0311C9.77023 16.4168 9.51513 16.4899 9.2912 16.6238C9.06728 16.7578 8.88233 16.9481 8.75476 17.1757L7.98021 18.5393C7.80975 18.8117 7.71577 19.1249 7.70815 19.4461C7.70052 19.7673 7.77954 20.0847 7.93691 20.3648C8.09427 20.6449 8.32416 20.8775 8.60244 21.0381C8.88073 21.1987 9.19712 21.2814 9.5184 21.2775H16.5439C17.2281 21.2891 17.9033 21.1196 18.501 20.7863C19.0987 20.4529 19.5977 19.9676 19.9475 19.3793Z" fill="white"/><mask id="path-2-outside-1_498_9540" maskUnits="userSpaceOnUse" x="0" y="11.3627" width="10" height="9" fill="black"><rect fill="white" y="11.3627" width="10" height="9"/><path fill-rule="evenodd" clip-rule="evenodd" d="M4.63079 17.6243C3.73013 17.6243 3 16.8942 3 15.9935C3 15.0928 3.73013 14.3627 4.63079 14.3627H5.84769C6.74835 14.3627 7.47849 15.0928 7.47849 15.9935C7.47849 16.8942 6.74835 17.6243 5.84769 17.6243H4.63079Z"/></mask><path fill-rule="evenodd" clip-rule="evenodd" d="M4.63079 17.6243C3.73013 17.6243 3 16.8942 3 15.9935C3 15.0928 3.73013 14.3627 4.63079 14.3627H5.84769C6.74835 14.3627 7.47849 15.0928 7.47849 15.9935C7.47849 16.8942 6.74835 17.6243 5.84769 17.6243H4.63079Z" fill="#E45BFF"/><path d="M0.871938 15.9935C0.871938 18.0694 2.55483 19.7523 4.63079 19.7523V15.4962C4.90543 15.4962 5.12806 15.7189 5.12806 15.9935H0.871938ZM4.63079 12.2346C2.55483 12.2346 0.871938 13.9175 0.871938 15.9935H5.12806C5.12806 16.2681 4.90543 16.4908 4.63079 16.4908V12.2346ZM5.84769 12.2346H4.63079V16.4908H5.84769V12.2346ZM9.60655 15.9935C9.60655 13.9175 7.92365 12.2346 5.84769 12.2346V16.4908C5.57306 16.4908 5.35042 16.2681 5.35042 15.9935H9.60655ZM5.84769 19.7523C7.92365 19.7523 9.60655 18.0694 9.60655 15.9935H5.35042C5.35042 15.7189 5.57306 15.4962 5.84769 15.4962V19.7523ZM4.63079 19.7523H5.84769V15.4962H4.63079V19.7523Z" fill="white" mask="url(#path-2-outside-1_498_9540)"/><path fill-rule="evenodd" clip-rule="evenodd" d="M30.3542 11.854C30.3753 11.3015 30.1999 10.877 29.7385 10.6872C28.7912 10.2977 28.1055 11.2627 27.5447 12.5704C26.984 13.8782 26.7981 15.0487 27.7078 15.4228C28.0813 15.5764 28.4663 15.4565 28.8277 15.1495C28.1246 15.9948 27.2909 16.4013 26.4528 16.0494C24.952 15.4192 25.163 13.6753 25.9699 11.7537C26.7768 9.83207 27.8122 8.43437 29.3749 9.09058C30.4126 9.52633 30.6236 10.5772 30.3542 11.854Z" fill="white"/><mask id="path-5-outside-2_498_9540" maskUnits="userSpaceOnUse" x="3.20178" y="-0.731964" width="31" height="27" fill="black"><rect fill="white" x="3.20178" y="-0.731964" width="31" height="27"/><path fill-rule="evenodd" clip-rule="evenodd" d="M26.7555 4.35805C27.5398 4.35805 32.0002 5.79831 32.0002 11.1184C32.0002 12.3333 31.7583 13.5302 31.3222 14.6751C31.6802 15.3695 32.0769 16.453 31.9526 17.3816C31.9013 17.7646 31.537 17.9967 31.1533 17.9505C30.6849 17.8939 30.1531 17.7774 29.6787 17.6541C27.0072 21.2879 22.4281 23.8707 18.0849 23.8707C13.3396 23.8707 9.62516 20.7479 9.62516 16.1629C9.62516 14.853 10.1297 14.5244 10.6376 14.5244C11.1512 14.5244 11.619 14.6438 12.1138 14.7702C12.4433 14.8543 12.7847 14.9416 13.1597 14.9986C13.8985 15.111 14.1631 13.991 13.4273 13.7376C13.2441 13.6745 12.9761 13.6129 12.6495 13.538C10.8316 13.1207 7.19933 12.2868 6.28226 8.44543C5.85028 6.63525 7.23587 6.6401 8.56447 6.64476C8.63162 6.645 8.69862 6.64523 8.76524 6.64523C9.23996 6.64523 9.75977 6.65095 10.2967 6.65685C12.8755 6.68519 15.8487 6.71788 16.1143 6.14256C16.1428 6.08074 16.1782 5.99522 16.2215 5.89072C16.4775 5.27278 17.0085 3.99097 18.016 3.01772C19.5996 1.48796 21.9528 2.5954 23.8493 3.71389C24.9884 4.3857 25.4909 4.3771 26.3344 4.36267C26.4654 4.36043 26.6045 4.35805 26.7555 4.35805Z"/></mask><path fill-rule="evenodd" clip-rule="evenodd" d="M26.7555 4.35805C27.5398 4.35805 32.0002 5.79831 32.0002 11.1184C32.0002 12.3333 31.7583 13.5302 31.3222 14.6751C31.6802 15.3695 32.0769 16.453 31.9526 17.3816C31.9013 17.7646 31.537 17.9967 31.1533 17.9505C30.6849 17.8939 30.1531 17.7774 29.6787 17.6541C27.0072 21.2879 22.4281 23.8707 18.0849 23.8707C13.3396 23.8707 9.62516 20.7479 9.62516 16.1629C9.62516 14.853 10.1297 14.5244 10.6376 14.5244C11.1512 14.5244 11.619 14.6438 12.1138 14.7702C12.4433 14.8543 12.7847 14.9416 13.1597 14.9986C13.8985 15.111 14.1631 13.991 13.4273 13.7376C13.2441 13.6745 12.9761 13.6129 12.6495 13.538C10.8316 13.1207 7.19933 12.2868 6.28226 8.44543C5.85028 6.63525 7.23587 6.6401 8.56447 6.64476C8.63162 6.645 8.69862 6.64523 8.76524 6.64523C9.23996 6.64523 9.75977 6.65095 10.2967 6.65685C12.8755 6.68519 15.8487 6.71788 16.1143 6.14256C16.1428 6.08074 16.1782 5.99522 16.2215 5.89072C16.4775 5.27278 17.0085 3.99097 18.016 3.01772C19.5996 1.48796 21.9528 2.5954 23.8493 3.71389C24.9884 4.3857 25.4909 4.3771 26.3344 4.36267C26.4654 4.36043 26.6045 4.35805 26.7555 4.35805Z" fill="url(#paint0_radial_498_9540)"/><path d="M31.3222 14.6751L29.3335 13.9175L28.9952 14.8057L29.4307 15.6504L31.3222 14.6751ZM31.9526 17.3816L29.8433 17.0991L29.8433 17.0991L31.9526 17.3816ZM31.1533 17.9505L30.8984 20.0632H30.8984L31.1533 17.9505ZM29.6787 17.6541L30.2141 15.5945L28.8183 15.2317L27.9641 16.3936L29.6787 17.6541ZM12.1138 14.7702L12.6404 12.7083L12.6404 12.7083L12.1138 14.7702ZM13.1597 14.9986L13.4799 12.8948H13.4799L13.1597 14.9986ZM13.4273 13.7376L14.1203 11.7255H14.1203L13.4273 13.7376ZM12.6495 13.538L13.1256 11.4639L13.1256 11.4639L12.6495 13.538ZM6.28226 8.44543L4.21232 8.9394L4.21237 8.93958L6.28226 8.44543ZM8.56447 6.64476L8.57193 4.51671H8.57193L8.56447 6.64476ZM10.2967 6.65685L10.2733 8.78478L10.2967 6.65685ZM16.1143 6.14256L14.1821 5.25078L14.1821 5.25078L16.1143 6.14256ZM16.2215 5.89072L18.1876 6.70518L18.1876 6.70517L16.2215 5.89072ZM18.016 3.01772L19.4945 4.54828L19.4945 4.54828L18.016 3.01772ZM23.8493 3.71389L24.9303 1.88086V1.88086L23.8493 3.71389ZM26.3344 4.36267L26.3709 6.49042L26.3344 4.36267ZM34.1282 11.1184C34.1282 7.77408 32.6911 5.50828 31.0455 4.11773C30.2478 3.44371 29.4206 2.98924 28.7179 2.69917C28.0881 2.43918 27.3602 2.22998 26.7555 2.22998V6.48611C26.543 6.48611 26.6667 6.45695 27.0938 6.63326C27.4481 6.77949 27.883 7.0176 28.2985 7.36866C29.0791 8.02826 29.8721 9.14267 29.8721 11.1184H34.1282ZM33.3108 15.4327C33.8295 14.0712 34.1282 12.618 34.1282 11.1184H29.8721C29.8721 12.0486 29.6871 12.9892 29.3335 13.9175L33.3108 15.4327ZM34.0618 17.6641C34.2753 16.0702 33.6256 14.4989 33.2136 13.6998L29.4307 15.6504C29.5555 15.8924 29.6827 16.196 29.7643 16.4972C29.8501 16.8137 29.8547 17.014 29.8433 17.0991L34.0618 17.6641ZM30.8984 20.0632C32.2108 20.2215 33.8272 19.4157 34.0618 17.6641L29.8433 17.0991C29.9753 16.1135 30.8631 15.7719 31.4082 15.8377L30.8984 20.0632ZM29.1433 19.7137C29.6615 19.8484 30.2962 19.9905 30.8984 20.0632L31.4082 15.8377C31.0736 15.7973 30.6447 15.7064 30.2141 15.5945L29.1433 19.7137ZM18.0849 25.9988C23.1972 25.9988 28.3787 23.0151 31.3933 18.9146L27.9641 16.3936C25.6357 19.5607 21.6589 21.7427 18.0849 21.7427V25.9988ZM7.4971 16.1629C7.4971 22.1503 12.405 25.9988 18.0849 25.9988V21.7427C14.2741 21.7427 11.7532 19.3455 11.7532 16.1629H7.4971ZM10.6376 12.3963C9.88745 12.3963 8.93863 12.6673 8.25574 13.5529C7.65406 14.3331 7.4971 15.2944 7.4971 16.1629H11.7532C11.7532 15.7215 11.8485 15.8635 11.6261 16.152C11.5009 16.3144 11.3222 16.4577 11.1088 16.5499C10.9083 16.6365 10.7371 16.6524 10.6376 16.6524V12.3963ZM12.6404 12.7083C12.1823 12.5913 11.4604 12.3963 10.6376 12.3963V16.6524C10.842 16.6524 11.0557 16.6963 11.5873 16.8321L12.6404 12.7083ZM13.4799 12.8948C13.2242 12.8559 12.9804 12.7952 12.6404 12.7083L11.5872 16.8321C11.9062 16.9135 12.3453 17.0272 12.8396 17.1025L13.4799 12.8948ZM12.7342 15.7496C12.3865 15.6298 12.0654 15.3591 11.8838 14.9834C11.7197 14.6438 11.7101 14.3077 11.7696 14.0412C11.8287 13.7768 11.9821 13.4655 12.2925 13.2187C12.6391 12.9433 13.0799 12.8339 13.4799 12.8948L12.8396 17.1025C14.5788 17.3671 15.6758 16.0771 15.9233 14.9694C16.1752 13.8422 15.719 12.2762 14.1203 11.7255L12.7342 15.7496ZM12.1734 15.6121C12.3422 15.6508 12.4695 15.6802 12.5766 15.7069C12.6282 15.7198 12.667 15.7301 12.696 15.7383C12.7258 15.7467 12.7367 15.7505 12.7342 15.7496L14.1203 11.7255C13.8039 11.6165 13.4012 11.5271 13.1256 11.4639L12.1734 15.6121ZM4.21237 8.93958C5.46849 14.2012 10.5178 15.232 12.1734 15.6121L13.1256 11.4639C11.1454 11.0093 8.93017 10.3725 8.35216 7.95128L4.21237 8.93958ZM8.57193 4.51671C8.26122 4.51562 7.82498 4.51248 7.40078 4.54966C6.98952 4.58571 6.40188 4.67197 5.82736 4.95326C5.18616 5.2672 4.56981 5.82475 4.26366 6.68971C3.98531 7.47617 4.05275 8.27072 4.21232 8.9394L8.3522 7.95145C8.29578 7.71505 8.37443 7.83139 8.27589 8.10979C8.22261 8.26033 8.13257 8.41228 8.00856 8.54308C7.88926 8.66893 7.77227 8.73989 7.69893 8.7758C7.62968 8.80971 7.59334 8.81548 7.61392 8.81083C7.63356 8.80639 7.68277 8.79739 7.77246 8.78953C7.96823 8.77237 8.20342 8.77157 8.55701 8.77281L8.57193 4.51671ZM8.76524 4.51717C8.70298 4.51717 8.63972 4.51695 8.57193 4.51671L8.557 8.77281C8.62351 8.77304 8.69426 8.77329 8.76524 8.77329V4.51717ZM10.3201 4.52891C9.78599 4.52304 9.25388 4.51717 8.76524 4.51717V8.77329C9.22603 8.77329 9.73355 8.77885 10.2733 8.78478L10.3201 4.52891ZM14.1821 5.25078C14.4559 4.65741 14.9145 4.44078 14.9664 4.41567C15.0687 4.36614 15.1034 4.36849 15.0043 4.39003C14.8155 4.43102 14.4728 4.47292 13.9565 4.5012C12.9424 4.55676 11.6318 4.54333 10.3201 4.52891L10.2733 8.78478C11.5404 8.79871 13.0058 8.81579 14.1894 8.75095C14.772 8.71904 15.3835 8.66301 15.9075 8.5492C16.1647 8.49334 16.4955 8.40408 16.8213 8.24634C17.0966 8.113 17.7062 7.77154 18.0465 7.03434L14.1821 5.25078ZM14.2555 5.07626C14.233 5.13051 14.2165 5.17022 14.2024 5.20372C14.1956 5.21972 14.1905 5.23155 14.1867 5.24022C14.1829 5.24908 14.1815 5.25208 14.1821 5.25078L18.0465 7.03435C18.0969 6.92495 18.1513 6.79274 18.1876 6.70518L14.2555 5.07626ZM16.5375 1.48717C15.1764 2.80201 14.5059 4.47176 14.2555 5.07626L18.1876 6.70517C18.4491 6.0738 18.8406 5.17994 19.4945 4.54828L16.5375 1.48717ZM24.9303 1.88086C23.9614 1.30944 22.6506 0.597958 21.2732 0.294491C19.8227 -0.0250747 18.013 0.0617516 16.5375 1.48717L19.4945 4.54828C19.6025 4.44393 19.7613 4.3196 20.3574 4.45094C21.0266 4.59837 21.8406 4.99985 22.7683 5.54693L24.9303 1.88086ZM26.298 2.23492C25.8425 2.24271 25.7465 2.23578 25.6486 2.21479C25.5728 2.19855 25.3808 2.14651 24.9303 1.88086L22.7683 5.54693C23.457 5.95308 24.0858 6.23265 24.7569 6.37645C25.4058 6.51551 25.9829 6.49706 26.3709 6.49042L26.298 2.23492ZM26.7555 2.22998C26.5837 2.22998 26.4273 2.2327 26.298 2.23492L26.3709 6.49042C26.5034 6.48815 26.6252 6.48611 26.7555 6.48611V2.22998Z" fill="white" mask="url(#path-5-outside-2_498_9540)"/><path d="M4.24951 12.2175C5.95248 12.2822 4.76687 10.6439 4.44352 9.73851L6.06026 10.3636L6.70696 11.9157L5.95248 12.8427C5.73691 12.9792 5.09453 13.0453 4.24951 12.2175Z" fill="white"/><path d="M8.66755 20.8839C8.25798 20.2587 7.40649 19.5042 6.64124 19.6767L7.14781 18.3509L8.36576 18.1138L9.37892 20.2263C9.27832 20.6539 8.99521 21.384 8.66755 20.8839Z" fill="white"/><path d="M20.9223 27.1122C20.4912 25.7433 19.2409 25.9912 18.5403 25.9912L17.9475 25.0966L19.5211 24.5685L21.3427 24.8164L21.763 26.4763C21.7163 26.7852 21.4828 27.345 20.9223 27.1122Z" fill="white"/><path d="M30.0302 20.5382C30.429 20.134 30.7685 20.1502 31.3721 20.0855L31.4207 19.7298C31.2159 19.6508 30.8009 19.4862 30.7794 19.4603C30.7578 19.4345 30.1236 19.8017 29.8092 19.9885C29.75 20.3064 29.7112 20.8615 30.0302 20.5382Z" fill="white"/><path d="M29.7448 22.7908C29.2544 22.0363 29.1897 21.3681 29.5723 21.0016C29.258 21.0016 28.612 21.0146 28.543 21.0663C28.4568 21.131 28.122 22.1172 28.0951 22.1387C28.0735 22.156 28.5603 22.5806 28.8064 22.7908C29.0094 22.9579 29.4813 23.1918 29.7448 22.7908Z" fill="white"/><path d="M29.254 25.4851C29.371 24.9857 29.3374 24.3466 29.0741 23.765C28.7917 23.1411 28.2358 22.575 27.3626 22.3705C26.8966 22.2614 26.4764 22.306 26.0833 22.4723C25.8018 22.5914 25.5366 22.7787 25.3528 22.9084C25.3301 22.9245 25.3087 22.9396 25.2886 22.9536C24.8894 23.2325 24.3526 23.5936 23.2582 23.878C22.0418 24.1941 21.6201 25.4324 21.821 26.3904C22.0457 27.4624 22.9607 28.3112 24.3505 28.5337C25.969 28.7928 27.1796 28.2467 27.9849 27.5118C28.7415 26.8213 29.1409 25.968 29.254 25.4851Z" fill="#A66BFF" stroke="white" stroke-width="2.12806"/><path fill-rule="evenodd" clip-rule="evenodd" d="M30.2757 12.3279C30.2973 11.734 30.1076 11.2778 29.6109 11.0735C28.5882 10.653 27.848 11.6948 27.2427 13.1065C26.6374 14.5182 26.4366 15.7818 27.4188 16.1857C27.8217 16.3514 28.2371 16.2222 28.6271 15.8911C27.868 16.8041 26.9677 17.2433 26.0627 16.8633C24.4426 16.1829 24.6704 14.3004 25.5415 12.226C26.4126 10.1515 27.5303 8.64271 29.2172 9.3511C30.3357 9.82076 30.5646 10.9524 30.2757 12.3279Z" fill="white"/><defs><radialGradient id="paint0_radial_498_9540" cx="0" cy="0" r="1" gradientUnits="userSpaceOnUse" gradientTransform="translate(28.2622 2.7752) rotate(123.09) scale(26.8491 35.0152)"><stop stop-color="#01FC3E"/><stop offset="0.513888" stop-color="#268AFF"/><stop offset="1" stop-color="#FB55FF"/></radialGradient></defs></svg>